<?xml version="1.0" encoding="UTF-8" standalone="no"?>
<svg
   xmlns:dc="http://purl.org/dc/elements/1.1/"
   xmlns:cc="http://creativecommons.org/ns#"
   xmlns:rdf="http://www.w3.org/1999/02/22-rdf-syntax-ns#"
   xmlns:svg="http://www.w3.org/2000/svg"
   xmlns="http://www.w3.org/2000/svg"
   xmlns:sodipodi="http://sodipodi.sourceforge.net/DTD/sodipodi-0.dtd"
   xmlns:inkscape="http://www.inkscape.org/namespaces/inkscape"
   width="43.803944mm"
   height="64.669983mm"
   viewBox="0 0 43.803944 64.669983"
   version="1.1"
   id="svg8"
   inkscape:version="1.0 (4035a4fb49, 2020-05-01)"
   sodipodi:docname="crown_blue.svg">
  <defs
     id="defs2" />
  <sodipodi:namedview
     id="base"
     pagecolor="#ffffff"
     bordercolor="#666666"
     borderopacity="1.0"
     inkscape:pageopacity="0.0"
     inkscape:pageshadow="2"
     inkscape:zoom="0.49953522"
     inkscape:cx="-391.8686"
     inkscape:cy="-25.814355"
     inkscape:document-units="mm"
     inkscape:current-layer="layer1"
     inkscape:document-rotation="0"
     showgrid="false"
     showguides="false"
     inkscape:window-width="1440"
     inkscape:window-height="803"
     inkscape:window-x="0"
     inkscape:window-y="480"
     inkscape:window-maximized="0" />
  <metadata
     id="metadata5">
    <rdf:RDF>
      <cc:Work
         rdf:about="">
        <dc:format>image/svg+xml</dc:format>
        <dc:type
           rdf:resource="http://purl.org/dc/dcmitype/StillImage" />
        <dc:title />
      </cc:Work>
    </rdf:RDF>
  </metadata>
  <g
     inkscape:label="Warstwa 1"
     inkscape:groupmode="layer"
     id="layer1"
     transform="translate(-125.3192,-117.90005)">
    <path
       style="opacity:0.999;fill:#02a4ef;fill-opacity:1;stroke-width:0.215987"
       d="m 133.07941,182.57003 c -2.32605,-2.84625 -0.45773,-7.68532 -0.45773,-7.68532 0.42712,-4.82032 19.02617,-2.88218 10.71845,-14.3143 -2.53103,-2.25477 -5.60217,-1.0318 -9.65118,-0.95732 -8.30425,-0.5156 -8.43227,-5.54864 -8.36028,-9.00747 0.0659,-3.16877 1.46387,-7.11254 1.46387,-7.11254 3.43637,-5.05405 14.93213,1.94736 18.00367,-5.24525 2.14833,-6.58556 -2.69891,-7.92705 -7.27754,-9.55867 -1.94703,-0.69384 -4.84436,-3.20344 -5.15751,-4.36003 -0.25495,-0.94195 -0.88355,-5.42672 0.7312,-6.42908 11.41796,2.61281 24.77424,6.21148 34.65221,8.47881 0,0 -1.42455,10.71798 -1.96676,19.40031 -0.20156,6.85764 0.375,15.12107 3.34534,27.9971 -13.00653,3.79867 -14.08168,3.2434 -21.62949,5.42204 z"
       id="path853-7-5-2"
       sodipodi:nodetypes="cccccccsscccccc" />
  </g>
</svg>
