<?xml version="1.0" encoding="UTF-8" standalone="no"?>
<svg
   xmlns:dc="http://purl.org/dc/elements/1.1/"
   xmlns:cc="http://creativecommons.org/ns#"
   xmlns:rdf="http://www.w3.org/1999/02/22-rdf-syntax-ns#"
   xmlns:svg="http://www.w3.org/2000/svg"
   xmlns="http://www.w3.org/2000/svg"
   xmlns:sodipodi="http://sodipodi.sourceforge.net/DTD/sodipodi-0.dtd"
   xmlns:inkscape="http://www.inkscape.org/namespaces/inkscape"
   inkscape:version="1.0 (4035a4fb49, 2020-05-01)"
   sodipodi:docname="logo_dotnet_horizontal_arm.svg"
   viewBox="0 0 322.88342 173.95073"
   height="173.95073"
   width="322.88342"
   id="svg2"
   version="1.1">
  <metadata
     id="metadata8">
    <rdf:RDF>
      <cc:Work
         rdf:about="">
        <dc:format>image/svg+xml</dc:format>
        <dc:type
           rdf:resource="http://purl.org/dc/dcmitype/StillImage" />
        <dc:title />
      </cc:Work>
    </rdf:RDF>
  </metadata>
  <defs
     id="defs6" />
  <sodipodi:namedview
     inkscape:current-layer="g10"
     inkscape:window-maximized="0"
     inkscape:window-y="501"
     inkscape:window-x="66"
     inkscape:cy="138.6258"
     inkscape:cx="112.26039"
     inkscape:zoom="1.225"
     showgrid="false"
     id="namedview4"
     inkscape:window-height="988"
     inkscape:window-width="1774"
     inkscape:pageshadow="2"
     inkscape:pageopacity="0"
     guidetolerance="10"
     gridtolerance="10"
     objecttolerance="10"
     borderopacity="1"
     bordercolor="#666666"
     pagecolor="#ffffff"
     inkscape:document-rotation="0" />
  <g
     transform="translate(-137.07589,-194.02726)"
     id="g10"
     inkscape:label="Image"
     inkscape:groupmode="layer">
    <path
       id="path857"
       d="m 277.24793,366.92622 c -12.16801,-1.65578 -14.23044,-3.93 -16.01395,-17.6585 -2.29693,-17.68053 -5.887,-25.07636 -17.45501,-35.95872 -10.70994,-10.07514 -20.25942,-13.7807 -35.61571,-13.82026 -13.30739,-0.0343 -22.29896,3.07681 -33.588,11.62145 -14.17754,10.73095 -16.78275,10.45738 -31.45934,-3.30343 -5.24902,-4.92148 -6.49623,-6.51797 -5.90555,-7.55939 0.78084,-1.37669 39.98871,-40.97664 81.39934,-82.21333 l 24.10804,-24.00678 9.25338,6.19106 c 9.72533,6.50684 15.3606,9.31508 24.1241,12.02185 4.57568,1.41328 7.59131,1.63738 22.03361,1.63738 16.39371,0 16.87917,-0.0492 23.98511,-2.42989 9.06691,-3.03769 13.54999,-5.30127 22.12742,-11.17248 3.72847,-2.55212 7.45324,-4.59692 8.27727,-4.544 3.22183,0.20691 12.21609,8.5025 51.04975,47.08429 43.79073,43.50669 56.45383,56.75503 56.39069,58.99683 -0.0392,1.39165 -15.02138,14.93569 -18.9086,17.09355 -4.64882,2.58064 -9.16457,0.95791 -18.65392,-6.70327 -11.52848,-9.30746 -21.06843,-12.7882 -35.04962,-12.7882 -15.6066,0 -25.15772,3.93681 -35.90092,14.79775 -11.15265,11.27487 -15.82883,21.10734 -17.12273,36.00348 -1.29927,14.95787 -3.23575,16.25381 -25.71216,17.2072 -19.46031,0.82545 -21.93563,0.78626 -31.3632,-0.49659 z"
       style="opacity:0.999;fill:#02a4ef;fill-opacity:1;stroke-width:0.816327" />
  </g>
</svg>
