<?xml version="1.0" encoding="UTF-8" standalone="no"?>
<svg
   xmlns:dc="http://purl.org/dc/elements/1.1/"
   xmlns:cc="http://creativecommons.org/ns#"
   xmlns:rdf="http://www.w3.org/1999/02/22-rdf-syntax-ns#"
   xmlns:svg="http://www.w3.org/2000/svg"
   xmlns="http://www.w3.org/2000/svg"
   xmlns:sodipodi="http://sodipodi.sourceforge.net/DTD/sodipodi-0.dtd"
   xmlns:inkscape="http://www.inkscape.org/namespaces/inkscape"
   version="1.1"
   id="svg2"
   width="503.08524"
   height="502.60837"
   viewBox="0 0 503.08524 502.60837"
   sodipodi:docname="logo_dotnet - Copy.svg"
   inkscape:version="1.0 (4035a4fb49, 2020-05-01)">
  <metadata
     id="metadata8">
    <rdf:RDF>
      <cc:Work
         rdf:about="">
        <dc:format>image/svg+xml</dc:format>
        <dc:type
           rdf:resource="http://purl.org/dc/dcmitype/StillImage" />
        <dc:title />
      </cc:Work>
    </rdf:RDF>
  </metadata>
  <defs
     id="defs6" />
  <sodipodi:namedview
     inkscape:document-rotation="0"
     pagecolor="#ffffff"
     bordercolor="#666666"
     borderopacity="1"
     objecttolerance="10"
     gridtolerance="10"
     guidetolerance="10"
     inkscape:pageopacity="0"
     inkscape:pageshadow="2"
     inkscape:window-width="1774"
     inkscape:window-height="988"
     id="namedview4"
     showgrid="false"
     inkscape:zoom="0.86620581"
     inkscape:cx="339.30038"
     inkscape:cy="226.21017"
     inkscape:window-x="100"
     inkscape:window-y="480"
     inkscape:window-maximized="0"
     inkscape:current-layer="g10" />
  <g
     inkscape:groupmode="layer"
     inkscape:label="Image"
     id="g10"
     transform="translate(-54.487526,-48.226764)">
    <path
       style="opacity:0.999;fill:#f35124;fill-opacity:1;stroke-width:0.671088"
       d="m 321.60803,528.52445 c -10.37914,-5.51454 -13.1633,-7.37132 -14.02532,-9.35362 -1.24611,-2.86556 -0.66112,-4.20493 4.54002,-10.39478 8.49236,-10.10668 11.07916,-17.45451 9.4521,-26.84863 -1.05206,-6.0742 -2.61834,-8.9373 -7.57197,-13.84123 -6.38171,-6.31769 -15.58493,-10.57002 -26.64958,-12.31335 -6.02604,-0.94945 -11.91823,-0.99587 -22.85489,-0.18004 -9.50766,0.70925 -12.84236,0.26162 -14.85382,-1.9939 -4.92399,-5.52141 -9.48282,-35.48608 -6.15137,-40.43233 1.56031,-2.31662 4.87583,-3.76481 14.6276,-6.38924 5.07937,-1.36697 11.24776,-3.33248 13.70757,-4.36779 13.40639,-5.64261 24.06584,-15.9302 28.51738,-27.52255 1.07284,-2.79379 1.04638,-4.25016 -0.20625,-11.35449 -1.24658,-7.06995 -1.75497,-8.55737 -3.83744,-11.22729 -2.60262,-3.33678 -7.5451,-7.40166 -14.04462,-11.55076 -2.26768,-1.44762 -4.78066,-3.66412 -5.58438,-4.92554 -1.32247,-2.07559 -1.33971,-2.54714 -0.18149,-4.963 1.49986,-3.1285 10.66785,-12.94175 12.37138,-13.24213 4.89033,-0.8623 16.88285,3.89609 68.53132,27.19188 38.22594,17.24162 48.26494,22.28699 48.64607,24.44851 0.0983,0.5577 -1.71293,3.81416 -4.02503,7.23656 -8.05019,11.91594 -9.33557,18.05138 -6.79817,32.4492 1.695,9.61753 1.7811,9.8552 5.19707,14.33368 4.38857,5.7536 8.47589,9.61079 14.53638,13.71788 l 4.779,3.23862 -1.22404,2.26426 c -2.04426,3.78155 -12.33018,14.15937 -52.17981,52.64605 l -38.16226,36.85701 z"
       id="path851" />
    <ellipse
       ry="72.73098"
       rx="74.462669"
       cy="336.8418"
       cx="414.10184"
       id="path834"
       style="opacity:0.999;fill:none" />
    <ellipse
       ry="250"
       rx="150"
       cy="297.01291"
       cx="554.36877"
       id="path836"
       style="opacity:0.999;fill:#ffff00" />
    <path
       id="path851-3"
       d="m 282.27734,304.7339 c -7.86712,-8.73185 -9.84832,-11.42889 -9.98037,-13.58647 -0.19088,-3.11894 0.81692,-4.17746 7.82144,-8.21512 11.4369,-6.59262 16.38081,-12.61257 18.06485,-21.99665 1.08889,-6.06771 0.5963,-9.29384 -2.38135,-15.59627 -3.83606,-8.11935 -11.02989,-15.26292 -20.83099,-20.68545 -5.3379,-2.95322 -10.85888,-5.01208 -21.415,-7.98602 -9.17686,-2.58533 -12.15735,-4.1465 -13.27607,-6.95396 -2.7386,-6.87252 3.22602,-36.58931 8.04827,-40.09784 2.25854,-1.64326 5.86943,-1.87014 15.9307,-1.00099 5.24058,0.45271 11.70921,0.71545 14.37478,0.58388 14.52776,-0.71706 28.06293,-6.73848 36.21083,-16.10922 1.96367,-2.25837 2.43692,-3.63596 3.68965,-10.74026 1.24667,-7.06993 1.27766,-8.64153 0.23395,-11.86268 -1.30442,-4.0257 -4.55856,-9.53586 -9.24703,-15.65771 -1.63581,-2.13591 -3.23915,-5.07823 -3.56297,-6.53846 -0.53283,-2.40273 -0.38774,-2.85174 1.5269,-4.72576 2.47942,-2.42686 14.45084,-8.512658 16.15437,-8.21228 4.89033,0.862297 14.53215,9.43541 55.0982,48.9911 30.02366,29.27586 37.73161,37.45049 37.35048,39.61201 -0.0983,0.5577 -2.91415,2.99829 -6.25735,5.4235 -11.64019,8.444 -14.9465,13.76979 -17.48646,28.16716 -1.69662,9.61725 -1.697,9.87004 -0.0188,15.24675 2.15607,6.9076 4.67765,11.93012 8.96794,17.86233 l 3.38312,4.67782 -1.92465,1.70906 c -3.21434,2.85431 -16.42936,9.08829 -67.03899,31.62456 l -48.46663,21.582 z"
       style="opacity:0.999;fill:#f35124;fill-opacity:1;stroke-width:0.671088" />
    <path
       id="path851-6"
       d="m 520.52052,674.61772 c -11.23854,3.4398 -14.52018,4.09556 -16.53141,3.3034 -2.90739,-1.14513 -3.44081,-2.50585 -4.13994,-10.5605 -1.14151,-13.15151 -4.50805,-20.17635 -12.3012,-25.6685 -5.03904,-3.55118 -8.17108,-4.46817 -15.14143,-4.43303 -8.97982,0.0453 -18.49434,3.54609 -27.55095,10.13725 -4.93241,3.58969 -9.13162,7.72331 -16.28815,16.03353 -6.22142,7.22446 -8.89595,9.26592 -11.91315,9.09333 -7.386,-0.42244 -31.79781,-18.38706 -32.93964,-24.24029 -0.53477,-2.7414 0.7856,-6.10987 5.82539,-14.86116 2.62506,-4.55824 5.59695,-10.30978 6.60423,-12.78121 5.48981,-13.46967 5.75276,-28.28147 0.70345,-39.62621 -1.21691,-2.73412 -2.26543,-3.74522 -8.17467,-7.88299 -5.88068,-4.11774 -7.29192,-4.81002 -10.65237,-5.22541 -4.1998,-0.51913 -10.56896,0.10144 -18.09867,1.76342 -2.62712,0.57986 -5.97137,0.78951 -7.43164,0.46587 -2.40279,-0.53253 -2.74842,-0.85378 -3.6377,-3.38103 -1.15161,-3.27275 -1.60789,-16.69451 -0.61572,-18.11149 2.84825,-4.06772 14.69294,-9.18303 67.68653,-29.23141 39.22148,-14.83815 49.88774,-18.36918 51.68567,-17.11025 0.46388,0.32481 1.4858,3.90824 2.27088,7.96315 2.73351,14.11819 6.16301,19.36549 18.13803,27.75206 7.99916,5.6021 8.2281,5.70927 13.81032,6.46058 7.17161,0.96523 12.78922,0.80249 19.97878,-0.57877 l 5.66932,-1.08921 0.73555,2.4666 c 1.22844,4.11946 1.29343,18.73094 0.32968,74.12307 l -0.92295,53.04663 z"
       style="opacity:0.999;fill:#f35124;fill-opacity:1;stroke-width:0.671088" />
    <path
       style="opacity:0.999;fill:#f35124;fill-opacity:1;stroke-width:0.671088"
       d="m 326.20623,63.197372 c -0.41385,-11.74588 -0.19791,-15.085415 1.0878,-16.823097 1.85858,-2.511947 3.31102,-2.675018 11.27215,-1.265625 12.99881,2.301283 20.65562,0.867592 27.97764,-5.238552 4.7344,-3.948207 6.43076,-6.736201 8.20088,-13.478138 2.28042,-8.685555 1.36142,-18.7819524 -2.66111,-29.2358733 -2.19078,-5.6934366 -5.09669,-10.8194317 -11.27153,-19.8829447 -5.36806,-7.879248 -6.64775,-10.990999 -5.70014,-13.860736 2.31968,-7.024992 25.99042,-25.955381 31.93973,-25.543397 2.7864,0.192958 5.69834,2.340183 12.84704,9.473252 3.72352,3.715373 8.50989,8.074612 10.63641,9.687211 11.58983,8.788964 25.82886,12.876522 38.09392,10.935491 2.95591,-0.467788 4.20393,-1.218883 9.73013,-5.855856 5.49946,-4.614538 6.53342,-5.798528 7.8044,-8.936958 1.58843,-3.922332 2.63747,-10.23508 2.98096,-17.938375 0.11984,-2.687679 0.78289,-5.972237 1.47345,-7.298984 1.13626,-2.183098 1.53603,-2.433797 4.20733,-2.638672 3.45929,-0.265344 16.54182,2.767748 17.65372,4.092861 3.19193,3.804 5.0673,16.569026 10.7168,72.9458056 4.18129,41.7254414 4.83137,52.9421494 3.15001,54.3529824 -0.43377,0.364041 -4.15963,0.423645 -8.27956,0.132496 -14.34461,-1.013695 -20.30074,0.940844 -31.50091,10.337215 -7.48153,6.276675 -7.64432,6.470078 -9.81483,11.667604 -2.78846,6.677426 -4.08525,12.145737 -4.61184,19.447818 l -0.41522,5.75805 -2.57293,0.0721 c -4.29704,0.12039 -18.42746,-3.59856 -71.68274,-18.866019 l -51.00023,-14.62098 z"
       id="path851-3-7" />
  </g>
</svg>
