<?xml version="1.0" encoding="UTF-8" standalone="no"?>
<svg
   xmlns:dc="http://purl.org/dc/elements/1.1/"
   xmlns:cc="http://creativecommons.org/ns#"
   xmlns:rdf="http://www.w3.org/1999/02/22-rdf-syntax-ns#"
   xmlns:svg="http://www.w3.org/2000/svg"
   xmlns="http://www.w3.org/2000/svg"
   xmlns:sodipodi="http://sodipodi.sourceforge.net/DTD/sodipodi-0.dtd"
   xmlns:inkscape="http://www.inkscape.org/namespaces/inkscape"
   version="1.1"
   id="svg2"
   width="600"
   height="600"
   viewBox="0 0 600 600"
   sodipodi:docname="logo_dotnet.svg"
   inkscape:version="1.0 (4035a4fb49, 2020-05-01)">
  <metadata
     id="metadata8">
    <rdf:RDF>
      <cc:Work
         rdf:about="">
        <dc:format>image/svg+xml</dc:format>
        <dc:type
           rdf:resource="http://purl.org/dc/dcmitype/StillImage" />
        <dc:title />
      </cc:Work>
    </rdf:RDF>
  </metadata>
  <defs
     id="defs6" />
  <sodipodi:namedview
     inkscape:document-rotation="0"
     pagecolor="#ffffff"
     bordercolor="#666666"
     borderopacity="1"
     objecttolerance="10"
     gridtolerance="10"
     guidetolerance="10"
     inkscape:pageopacity="0"
     inkscape:pageshadow="2"
     inkscape:window-width="1774"
     inkscape:window-height="988"
     id="namedview4"
     showgrid="false"
     inkscape:zoom="1.225"
     inkscape:cx="260.35669"
     inkscape:cy="332.65306"
     inkscape:window-x="0"
     inkscape:window-y="480"
     inkscape:window-maximized="0"
     inkscape:current-layer="g10" />
  <g
     inkscape:groupmode="layer"
     inkscape:label="Image"
     id="g10">
    <path
       style="fill:none"
       d="m 282.8704,552.41331 c -12.36092,-1.26891 -15.53778,-4.98876 -16.95393,-19.8517 -1.92994,-20.25528 -11.54875,-34.69865 -28.51851,-42.82274 -17.92999,-8.58378 -37.20438,-6.3333 -53.077,6.19729 -8.54222,6.74363 -12.10523,8.43119 -17.80108,8.43119 -3.64398,0 -5.31784,-0.69206 -9.31406,-3.85089 -7.68559,-6.0751 -17.30786,-15.25394 -17.30786,-16.51023 0,-0.63014 24.74833,-25.89096 54.99628,-56.13516 53.11136,-53.10478 55.07352,-54.94143 57.25,-53.58796 1.23955,0.77082 4.27872,3.09437 6.75372,5.16343 2.475,2.06906 7.65,5.32681 11.5,7.23945 28.8351,14.32497 60.6362,10.39213 85.83356,-10.61503 4.83355,-4.02976 4.83355,-4.02976 60.25,51.37994 30.47904,30.47533 55.41644,55.92926 55.41644,56.56429 0,1.18085 -12.91609,13.65971 -18.7251,18.09122 -7.1407,5.44743 -14.69465,4.71217 -22.15698,-2.15663 -9.95401,-9.1623 -16.91853,-12.74637 -28.57436,-14.70489 -20.37071,-3.42288 -40.76813,6.61188 -51.36533,25.2698 -3.72266,6.55429 -7.17823,19.06033 -7.17823,25.9787 0,10.027 -4.49492,14.69765 -15.35723,15.95762 -8.29259,0.96189 -36.15706,0.93889 -45.67033,-0.0377 z m 51.37149,-3.4163 c 5.02513,-2.09964 7.64769,-6.78438 7.65233,-13.66956 0.009,-13.34102 6.04838,-27.15844 16.42084,-37.56905 10.77496,-10.8146 21.65271,-15.39105 36.5829,-15.39105 14.00051,0 25.58573,4.71392 37.23741,15.15156 4.86506,4.35815 6.47423,5.2104 10.58345,5.60525 4.80267,0.46147 4.92584,0.39849 13.76259,-7.03749 4.9041,-4.12672 9.91575,-8.57912 11.137,-9.89422 2.22044,-2.39108 2.22044,-2.39108 -52.12046,-56.72512 -54.34089,-54.33403 -54.34089,-54.33403 -59.90288,-49.80373 -7.416,6.04041 -16.46287,10.98362 -26.19711,14.31408 -7.3918,2.52903 -9.21639,2.73909 -24,2.76315 -14.90505,0.0243 -16.54748,-0.16281 -24,-2.73343 -9.55093,-3.29444 -16.98809,-7.2879 -24.66555,-13.24444 -3.11605,-2.41759 -6.03948,-4.39561 -6.49652,-4.39561 -1.28257,0 -107.33793,106.34107 -107.33793,107.62709 0,1.19977 15.63505,15.02236 19.32803,17.08747 4.70567,2.63141 10.80038,0.7927 18.44195,-5.56375 10.49064,-8.72637 22.06106,-13.15081 34.3909,-13.15081 15.26631,0 26.65242,4.69123 37.44807,15.4291 10.50707,10.45083 14.62064,19.85672 15.99391,36.5709 0.63744,7.75824 0.97311,8.77479 3.84663,11.64887 2.71863,2.71917 4.0968,3.24113 10.09938,3.82499 3.82312,0.37188 7.40113,0.86681 7.95113,1.09986 0.55,0.23305 9.82712,0.23057 20.61583,-0.006 14.42385,-0.31564 20.57194,-0.82874 23.2281,-1.93855 z M 113.97606,458.79168 c -17.957595,-19.19672 -18.803554,-23.81138 -6.82592,-37.23496 14.4876,-16.23654 17.43395,-38.19964 7.68787,-57.30789 -1.22912,-2.40981 -5.28635,-7.43343 -9.01606,-11.16359 -9.913296,-9.91446 -23.424167,-15.71789 -36.592599,-15.71789 -5.328496,0 -10.0402,-1.88355 -13.147361,-5.25579 -3.478502,-3.77527 -4.47513,-13.70622 -3.952051,-39.38041 0.401188,-19.69147 0.667745,-22.50733 2.413574,-25.49661 3.105612,-5.31754 7.71146,-7.86471 14.252329,-7.88197 18.631333,-0.0492 37.140178,-11.01407 45.524438,-26.96935 9.98767,-19.00657 7.95108,-37.69492 -6.14695,-56.4063 -6.33029,-8.40178 -6.72022,-9.23205 -7.09424,-15.10586 -0.39577,-6.21542 -0.39577,-6.21542 8.74159,-16.85957 5.04185,-5.87326 9.9098,-10.64414 10.86073,-10.64414 1.68259,0 111.21655,108.68045 111.21655,110.34993 0,0.46374 -1.6875,2.77387 -3.75,5.13362 -12.4254,14.21616 -19.05202,34.12331 -17.9672,53.97556 0.88303,16.15936 7.46813,33.08232 17.20008,44.20224 2.48442,2.83875 4.51712,5.99028 4.51712,7.00341 0,1.9799 -108.67121,111.33524 -110.63872,111.33524 -0.62258,0 -3.90001,-2.95905 -7.28318,-6.57567 z m 61.58331,-50.58572 c 54.16822,-54.16138 54.16822,-54.16138 49.23782,-60.25 -6.40653,-7.91151 -12.33641,-19.98219 -15.00952,-30.5529 -1.83433,-7.25377 -2.06135,-10.33507 -1.61989,-21.98589 0.7159,-18.89362 4.83523,-30.65815 15.89507,-45.39525 5.13733,-6.84543 5.13733,-6.84543 -48.76378,-60.81207 -53.90111,-53.96665 -53.90111,-53.96665 -60.76418,-46.65457 -10.1695,10.83482 -12.01873,13.92886 -11.34172,18.97636 0.32388,2.41468 1.84946,5.88504 3.6274,8.25153 6.86213,9.1337 11.12134,16.08572 13.10778,21.39494 2.59491,6.93554 3.56036,19.72619 2.08999,27.68924 -2.36015,12.7819 -11.48113,26.27777 -22.8874,33.86535 -7.761703,5.16318 -15.369642,7.64379 -26.3751,8.59974 -9.826069,0.85351 -12.70589,1.9452 -15.444159,5.85463 -3.867073,5.52102 -4.548284,52.87977 -0.87206,60.62683 2.30077,4.84852 4.225021,5.71136 15.958338,7.15581 5.5,0.67709 12.522377,2.17652 15.605282,3.33206 20.513719,7.689 34.894719,27.73445 34.894719,48.63919 0,14.24333 -4.78182,26.31337 -14.94529,37.72419 -5.44807,6.11671 -6.05471,7.23621 -6.05471,11.1734 0,3.49749 0.73723,5.34423 3.67356,9.2022 4.36022,5.72878 14.61606,17.32525 15.32303,17.32604 0.27313,3.1e-4 24.87229,-24.37206 54.66482,-54.16083 z m 260.08518,2.40801 c -30.11062,-30.11436 -54.74659,-55.32402 -54.74659,-56.02147 0,-0.69744 2.26163,-4.14596 5.02585,-7.66336 11.99339,-15.26129 18.04176,-36.37543 15.87717,-55.42526 -1.73624,-15.28009 -8.85018,-31.69953 -18.06598,-41.6975 -2.11037,-2.28948 -3.83704,-4.7889 -3.83704,-5.55427 0,-2.002 109.17554,-110.88476 111.18292,-110.88476 1.65884,0 12.20287,11.05123 17.78103,18.63634 6.0806,8.26833 5.36866,13.64731 -3.05973,23.11778 -7.45471,8.37638 -11.51801,16.45653 -13.60651,27.05752 -1.47323,7.47789 -1.47699,8.87971 -0.0434,16.15634 2.36159,11.98713 5.6204,18.13251 14.12555,26.63767 5.24979,5.24979 9.33353,8.30121 14.08571,10.52503 6.93748,3.24643 18.09456,5.86335 25.03445,5.87188 4.9411,0.006 9.88079,2.89934 12.02313,7.04217 2.17098,4.19822 3.3217,26.76187 2.29931,45.08557 -1.18473,21.23313 -3.26395,24.07052 -18.49674,25.2414 -29.34663,2.25577 -49.44938,22.80943 -49.51759,50.6283 -0.0333,13.57601 3.78676,22.81277 15.38371,37.19735 1.4805,1.83638 3.2424,5.39745 3.91534,7.91349 1.10132,4.11772 1.00812,5.0148 -0.93312,8.98189 -1.98635,4.05923 -17.47421,21.90727 -19.01033,21.90727 -0.3688,0 -25.30651,-24.63902 -55.41714,-54.75338 z m 64.88904,41.87638 c 4.64351,-5.26775 8.38432,-10.47273 8.71499,-12.12609 0.84276,-4.21382 -1.27854,-9.31649 -6.61246,-15.90591 -5.17489,-6.39294 -9.85384,-15.15623 -11.79498,-22.091 -1.92126,-6.86377 -1.41963,-21.31347 1.01195,-29.14993 6.60633,-21.29078 28.17503,-36.74952 51.39058,-36.83271 5.88167,-0.0211 10.09472,-2.31837 12.13439,-6.61666 3.55492,-7.49145 3.63215,-53.41538 0.1013,-60.24329 -2.03731,-3.93972 -6.25933,-6.15247 -11.78174,-6.17477 -22.85462,-0.0923 -45.42903,-16.09236 -51.79807,-36.71292 -5.88599,-19.05662 -1.78955,-37.13057 11.90263,-52.5156 7.05599,-7.92838 8.30031,-11.85567 5.45355,-17.21231 -1.95293,-3.67475 -17.04454,-21.54181 -18.19554,-21.54181 -0.36801,0 -25.09388,24.42786 -54.94638,54.28412 -54.27727,54.28413 -54.27727,54.28413 -50.88893,58.25 12.66994,14.82953 18.82911,31.66448 18.82911,51.46588 0,18.57554 -5.10328,33.94066 -16.07968,48.41315 -5.24315,6.91314 -5.24315,6.91314 48.58764,60.75086 29.60694,29.61075 54.28197,53.69161 54.83341,53.51302 0.55143,-0.17859 4.66363,-4.4779 9.13823,-9.55403 z M 195.12487,170.11477 c -30.78835,-30.77406 -55.14971,-55.89286 -54.99457,-56.70447 0.3307,-1.73011 18.08471,-17.592884 21.968,-19.627873 3.26149,-1.709145 10.11324,-1.846505 13.1154,-0.262928 1.20134,0.633683 4.61193,3.360105 7.57909,6.058718 15.82741,14.394923 38.01929,17.781743 56.76877,8.663773 6.91919,-3.36483 18.38528,-15.041599 22.20637,-22.614375 3.72498,-7.382313 6.09474,-16.705919 6.11525,-24.059928 0.0292,-10.489321 4.58021,-14.778111 17.22414,-16.231906 10.33894,-1.188768 29.36554,-1.197268 41.54766,-0.01856 14.25254,1.379036 19.24298,5.73975 19.24298,16.814765 0,21.248703 12.25506,39.279374 32.48525,47.795014 6.34114,2.66922 8.0009,2.93584 18,2.89141 14.95552,-0.0665 20.47806,-2.32805 38.35089,-15.70554 3.71759,-2.782546 5.15721,-3.245523 10.09192,-3.245523 5.21678,0 6.20445,0.367661 10.54711,3.926139 9.29012,7.612564 16.52483,14.807944 16.52483,16.435014 0,2.33803 -108.03902,110.13885 -110.38221,110.13885 -1.03146,0 -3.55625,-1.51856 -5.61064,-3.37458 -5.66465,-5.11766 -16.58502,-11.19924 -25.50715,-14.20496 -10.7858,-3.63357 -28.4915,-4.4979 -40.11733,-1.95838 -10.23192,2.23503 -24.25441,8.96158 -32.13771,15.41635 -3.44027,2.81686 -6.59027,5.12041 -7,5.11899 -0.40973,-0.001 -25.61785,-24.86392 -56.01805,-55.25 z m 61.78018,47.73948 c 12.59188,-10.34578 28.59766,-16.39825 45.49291,-17.20282 19.28774,-0.91851 36.76099,4.26112 51.31594,15.2117 4.02377,3.02732 7.62535,5.50422 8.00351,5.50422 0.37816,0 24.74791,-24.0635 54.15499,-53.47444 53.46744,-53.47444 53.46744,-53.47444 49.9965,-57.07519 -1.90902,-1.98041 -6.51522,-6.09851 -10.236,-9.15134 -6.56124,-5.38336 -6.91489,-5.536201 -11.7378,-5.07278 -4.14532,0.398313 -6.21352,1.42818 -12.42981,6.18947 -9.22683,7.06719 -15.87419,10.3299 -25.00511,12.27323 -24.62507,5.24095 -50.50726,-9.29148 -59.58491,-33.455972 -1.18452,-3.153139 -2.60447,-10.198103 -3.15546,-15.655474 -1.12036,-11.096911 -2.28908,-13.584531 -7.63041,-16.241354 -3.30254,-1.642709 -6.48793,-1.836153 -30.23542,-1.836153 -23.67569,0 -26.83488,0.190606 -29.23607,1.763927 -4.53697,2.972735 -5.84765,6.079185 -6.72859,15.947481 -1.35325,15.159153 -5.86807,24.902979 -16.38241,35.356275 -9.61254,9.55674 -19.05624,13.98845 -32.17084,15.09704 -14.4395,1.22059 -28.9671,-4.1159 -41.39632,-15.20628 -3.36456,-3.002143 -7.11288,-5.522075 -8.32959,-5.599848 -7.25909,-0.464006 -9.60922,0.840287 -21.7122,12.049998 -7.5,6.94645 -7.5,6.94645 46.49653,61.01893 29.69809,29.73986 54.22628,54.07248 54.50709,54.07248 0.28081,0 2.98237,-2.03089 6.00347,-4.5131 z"
       id="path841" />
    <path
       style="opacity:0.999;fill:#f35124;fill-opacity:1;stroke-width:0.816327"
       d="m 114.90944,455.33123 c -9.26387,-10.70269 -11.68331,-14.12379 -12.18801,-17.23389 -0.72958,-4.49588 0.0791,-6.29732 6.27608,-13.98078 10.11835,-12.54547 13.94179,-22.58809 13.97072,-36.69534 0.0187,-9.12169 -1.02662,-13.69625 -5.05343,-22.1151 -5.1877,-10.84592 -13.5127,-19.40715 -24.10652,-24.79054 -5.769626,-2.93191 -11.564242,-4.51351 -22.476416,-6.1348 -9.486374,-1.40943 -12.692684,-2.91856 -14.281917,-6.72213 -3.890399,-9.31103 -3.176654,-54.1471 0.96308,-60.49881 1.938878,-2.97487 5.455513,-4.23329 15.514866,-5.55195 5.239561,-0.68685 11.655559,-1.96605 14.257774,-2.84267 14.182543,-4.77776 26.466473,-17.03001 32.863373,-32.77864 1.54168,-3.79548 1.76852,-5.92449 1.76857,-16.59882 5e-5,-10.62268 -0.24233,-12.92077 -1.82954,-17.34649 -1.98365,-5.53111 -6.14519,-12.7244 -11.82548,-20.44053 -1.98185,-2.69216 -4.07176,-6.56775 -4.64423,-8.61241 -0.94196,-3.36435 -0.87705,-4.05594 0.68308,-7.27873 2.02034,-4.17349 12.7531,-16.11776 14.48291,-16.11776 4.96577,0 15.94981,10.01538 62.76835,57.23292 34.65123,34.94655 43.66159,44.87818 43.66159,48.12588 0,0.83796 -2.34923,5.11788 -5.2205,9.51095 -9.99707,15.29554 -12.32833,23.90585 -12.32963,45.53841 -8.2e-4,14.45024 0.0427,14.81871 2.62909,22.22246 3.3228,9.51183 6.67823,16.18275 11.93346,23.72485 l 4.14401,5.94729 -1.59863,2.98498 c -2.66986,4.98522 -14.6016,17.46493 -60.52897,63.3088 l -43.98264,43.90266 z"
       id="path851" />
    <path
       style="opacity:0.999;fill:#7fb902;fill-opacity:1;stroke-width:0.816327"
       d="m 220.33162,191.63265 c -33.89365,-33.46405 -66.82284,-67.45309 -70.37741,-72.64254 -4.46082,-6.51252 -4.43323,-6.63454 3.11873,-13.79145 12.46882,-11.816563 16.73441,-12.374445 27.02434,-3.53442 19.95845,17.14617 45.93885,19.68549 65.43232,6.39532 3.04127,-2.07347 7.7341,-6.17577 10.42849,-9.116224 8.8344,-9.641192 12.22897,-17.423762 14.21922,-32.59976 1.31227,-10.006284 2.58892,-13.202842 6.41173,-16.054163 2.18217,-1.627608 3.44901,-1.732639 24.08164,-1.996548 11.97806,-0.153211 24.43249,-0.03088 27.6765,0.27184 10.31675,0.962732 13.33066,4.42216 14.94098,17.149581 1.31497,10.393218 2.9524,16.324286 6.23595,22.587776 9.95267,18.985168 32.60767,30.695998 53.47872,27.644248 10.79738,-1.57878 18.04323,-4.8288 29.28813,-13.13675 6.28325,-4.642197 8.66942,-5.666703 13.19821,-5.666703 3.68819,0 7.43738,2.454928 16.55165,10.837853 l 4.89796,4.50494 -1.60517,3.14493 c -2.20999,4.32993 -102.70695,105.17707 -104.22959,104.59278 -0.62995,-0.24174 -4.04175,-2.51758 -7.58178,-5.05743 -8.47508,-6.0806 -16.56958,-9.89257 -26.18653,-12.3321 -24.53182,-6.22301 -50.28281,-1.11381 -69.59293,13.8078 -3.26189,2.52057 -6.27017,4.58286 -6.68507,4.58286 -0.4149,0 -14.24164,-13.31633 -30.72609,-29.59184 z"
       id="path853" />
    <path
       style="opacity:0.999;fill:#ffb901;fill-opacity:1;stroke-width:0.816327"
       d="m 465.68688,436.6818 c -32.89159,-32.03717 -68.35255,-68.12544 -74.39874,-75.71487 -3.06398,-3.84603 -4.75753,-6.73179 -4.75753,-8.10667 0,-1.2201 1.70361,-4.60753 3.97593,-7.9057 5.16761,-7.50057 7.60457,-12.43 10.17178,-20.57537 4.3345,-13.7527 4.83824,-30.68598 1.3445,-45.19552 -2.09642,-8.70646 -7.57561,-20.09079 -13.38844,-27.81768 l -4.47203,-5.9446 1.38821,-2.50349 c 0.76352,-1.37692 10.19933,-11.5049 20.96848,-22.50662 21.59782,-22.06424 25.93144,-26.40644 60.69931,-60.81944 l 23.91759,-23.67347 4.46722,4.89796 c 6.79425,7.44936 13.34665,16.22598 14.08214,18.86235 1.01983,3.6556 -0.26032,6.81063 -5.18678,12.7832 -11.10895,13.46791 -15.19528,23.20225 -15.32956,36.51771 -0.0993,9.84918 1.18444,15.88181 5.12466,24.08163 5.23927,10.90324 15.16239,20.29645 27.05631,25.61147 6.62322,2.95972 11.5557,4.16075 20.63358,5.02416 12.41373,1.18069 14.02413,3.53552 15.25377,22.30489 0.89373,13.64214 -0.10337,37.47618 -1.74957,41.82046 -1.14489,3.02131 -3.89831,6.00902 -6.44255,6.99075 -1.08639,0.4192 -5.53994,1.10182 -9.89677,1.51694 -22.11665,2.10729 -40.2588,15.6755 -47.04263,35.18239 -2.82476,8.12263 -3.58266,23.08441 -1.56642,30.92336 1.61123,6.26433 6.37523,15.39221 11.52931,22.09034 4.25655,5.53169 6.86718,10.83218 6.89302,13.9952 0.0207,2.54093 -7.35298,12.70892 -13.73899,18.94534 l -4.09301,3.99715 z"
       id="path855" />
    <path
       style="opacity:0.999;fill:#02a4ef;fill-opacity:1;stroke-width:0.816327"
       d="m 284.59487,549.78336 c -12.16801,-1.65578 -14.23044,-3.93 -16.01395,-17.6585 -2.29693,-17.68053 -5.887,-25.07636 -17.45501,-35.95872 -10.70994,-10.07514 -20.25942,-13.7807 -35.61571,-13.82026 -13.30739,-0.0343 -22.29896,3.07681 -33.588,11.62145 -14.17754,10.73095 -16.78275,10.45738 -31.45934,-3.30343 -5.24902,-4.92148 -6.49623,-6.51797 -5.90555,-7.55939 0.78084,-1.37669 39.98871,-40.97664 81.39934,-82.21333 l 24.10804,-24.00678 9.25338,6.19106 c 9.72533,6.50684 15.3606,9.31508 24.1241,12.02185 4.57568,1.41328 7.59131,1.63738 22.03361,1.63738 16.39371,0 16.87917,-0.0492 23.98511,-2.42989 9.06691,-3.03769 13.54999,-5.30127 22.12742,-11.17248 3.72847,-2.55212 7.45324,-4.59692 8.27727,-4.544 3.22183,0.20691 12.21609,8.5025 51.04975,47.08429 43.79073,43.50669 56.45383,56.75503 56.39069,58.99683 -0.0392,1.39165 -15.02138,14.93569 -18.9086,17.09355 -4.64882,2.58064 -9.16457,0.95791 -18.65392,-6.70327 -11.52848,-9.30746 -21.06843,-12.7882 -35.04962,-12.7882 -15.6066,0 -25.15772,3.93681 -35.90092,14.79775 -11.15265,11.27487 -15.82883,21.10734 -17.12273,36.00348 -1.29927,14.95787 -3.23575,16.25381 -25.71216,17.2072 -19.46031,0.82545 -21.93563,0.78626 -31.3632,-0.49659 z"
       id="path857" />
  </g>
</svg>
