<?xml version="1.0" encoding="UTF-8" standalone="no"?>
<svg
   xmlns:dc="http://purl.org/dc/elements/1.1/"
   xmlns:cc="http://creativecommons.org/ns#"
   xmlns:rdf="http://www.w3.org/1999/02/22-rdf-syntax-ns#"
   xmlns:svg="http://www.w3.org/2000/svg"
   xmlns="http://www.w3.org/2000/svg"
   xmlns:sodipodi="http://sodipodi.sourceforge.net/DTD/sodipodi-0.dtd"
   xmlns:inkscape="http://www.inkscape.org/namespaces/inkscape"
   inkscape:version="1.0 (4035a4fb49, 2020-05-01)"
   sodipodi:docname="logo_dotnet.svg"
   viewBox="0 0 503.08524 502.60837"
   height="502.60837"
   width="503.08524"
   id="svg2"
   version="1.1">
  <metadata
     id="metadata8">
    <rdf:RDF>
      <cc:Work
         rdf:about="">
        <dc:format>image/svg+xml</dc:format>
        <dc:type
           rdf:resource="http://purl.org/dc/dcmitype/StillImage" />
        <dc:title />
      </cc:Work>
    </rdf:RDF>
  </metadata>
  <defs
     id="defs6" />
  <sodipodi:namedview
     inkscape:current-layer="g10"
     inkscape:window-maximized="0"
     inkscape:window-y="480"
     inkscape:window-x="0"
     inkscape:cy="272.38857"
     inkscape:cx="339.30038"
     inkscape:zoom="0.86620581"
     showgrid="false"
     id="namedview4"
     inkscape:window-height="988"
     inkscape:window-width="1774"
     inkscape:pageshadow="2"
     inkscape:pageopacity="0"
     guidetolerance="10"
     gridtolerance="10"
     objecttolerance="10"
     borderopacity="1"
     bordercolor="#666666"
     pagecolor="#ffffff"
     inkscape:document-rotation="0" />
  <g
     transform="translate(-54.487526,-48.226764)"
     id="g10"
     inkscape:label="Image"
     inkscape:groupmode="layer">
    <path
       id="path851"
       d="m 114.90944,455.33123 c -9.26387,-10.70269 -11.68331,-14.12379 -12.18801,-17.23389 -0.72958,-4.49588 0.0791,-6.29732 6.27608,-13.98078 10.11835,-12.54547 13.94179,-22.58809 13.97072,-36.69534 0.0187,-9.12169 -1.02662,-13.69625 -5.05343,-22.1151 -5.1877,-10.84592 -13.5127,-19.40715 -24.10652,-24.79054 -5.769626,-2.93191 -11.564242,-4.51351 -22.476416,-6.1348 -9.486374,-1.40943 -12.692684,-2.91856 -14.281917,-6.72213 -3.890399,-9.31103 -3.176654,-54.1471 0.96308,-60.49881 1.938878,-2.97487 5.455513,-4.23329 15.514866,-5.55195 5.239561,-0.68685 11.655559,-1.96605 14.257774,-2.84267 14.182543,-4.77776 26.466473,-17.03001 32.863373,-32.77864 1.54168,-3.79548 1.76852,-5.92449 1.76857,-16.59882 5e-5,-10.62268 -0.24233,-12.92077 -1.82954,-17.34649 -1.98365,-5.53111 -6.14519,-12.7244 -11.82548,-20.44053 -1.98185,-2.69216 -4.07176,-6.56775 -4.64423,-8.61241 -0.94196,-3.36435 -0.87705,-4.05594 0.68308,-7.27873 2.02034,-4.17349 12.7531,-16.11776 14.48291,-16.11776 4.96577,0 15.94981,10.01538 62.76835,57.23292 34.65123,34.94655 43.66159,44.87818 43.66159,48.12588 0,0.83796 -2.34923,5.11788 -5.2205,9.51095 -9.99707,15.29554 -12.32833,23.90585 -12.32963,45.53841 -8.2e-4,14.45024 0.0427,14.81871 2.62909,22.22246 3.3228,9.51183 6.67823,16.18275 11.93346,23.72485 l 4.14401,5.94729 -1.59863,2.98498 c -2.66986,4.98522 -14.6016,17.46493 -60.52897,63.3088 l -43.98264,43.90266 z"
       style="opacity:0.999;fill:#f35124;fill-opacity:1;stroke-width:0.816327" />
    <path
       id="path853"
       d="m 220.33162,191.63265 c -33.89365,-33.46405 -66.82284,-67.45309 -70.37741,-72.64254 -4.46082,-6.51252 -4.43323,-6.63454 3.11873,-13.79145 12.46882,-11.816563 16.73441,-12.374445 27.02434,-3.53442 19.95845,17.14617 45.93885,19.68549 65.43232,6.39532 3.04127,-2.07347 7.7341,-6.17577 10.42849,-9.116224 8.8344,-9.641192 12.22897,-17.423762 14.21922,-32.59976 1.31227,-10.006284 2.58892,-13.202842 6.41173,-16.054163 2.18217,-1.627608 3.44901,-1.732639 24.08164,-1.996548 11.97806,-0.153211 24.43249,-0.03088 27.6765,0.27184 10.31675,0.962732 13.33066,4.42216 14.94098,17.149581 1.31497,10.393218 2.9524,16.324286 6.23595,22.587776 9.95267,18.985168 32.60767,30.695998 53.47872,27.644248 10.79738,-1.57878 18.04323,-4.8288 29.28813,-13.13675 6.28325,-4.642197 8.66942,-5.666703 13.19821,-5.666703 3.68819,0 7.43738,2.454928 16.55165,10.837853 l 4.89796,4.50494 -1.60517,3.14493 c -2.20999,4.32993 -102.70695,105.17707 -104.22959,104.59278 -0.62995,-0.24174 -4.04175,-2.51758 -7.58178,-5.05743 -8.47508,-6.0806 -16.56958,-9.89257 -26.18653,-12.3321 -24.53182,-6.22301 -50.28281,-1.11381 -69.59293,13.8078 -3.26189,2.52057 -6.27017,4.58286 -6.68507,4.58286 -0.4149,0 -14.24164,-13.31633 -30.72609,-29.59184 z"
       style="opacity:0.999;fill:#7fb902;fill-opacity:1;stroke-width:0.816327" />
    <path
       id="path855"
       d="m 465.68688,436.6818 c -32.89159,-32.03717 -68.35255,-68.12544 -74.39874,-75.71487 -3.06398,-3.84603 -4.75753,-6.73179 -4.75753,-8.10667 0,-1.2201 1.70361,-4.60753 3.97593,-7.9057 5.16761,-7.50057 7.60457,-12.43 10.17178,-20.57537 4.3345,-13.7527 4.83824,-30.68598 1.3445,-45.19552 -2.09642,-8.70646 -7.57561,-20.09079 -13.38844,-27.81768 l -4.47203,-5.9446 1.38821,-2.50349 c 0.76352,-1.37692 10.19933,-11.5049 20.96848,-22.50662 21.59782,-22.06424 25.93144,-26.40644 60.69931,-60.81944 l 23.91759,-23.67347 4.46722,4.89796 c 6.79425,7.44936 13.34665,16.22598 14.08214,18.86235 1.01983,3.6556 -0.26032,6.81063 -5.18678,12.7832 -11.10895,13.46791 -15.19528,23.20225 -15.32956,36.51771 -0.0993,9.84918 1.18444,15.88181 5.12466,24.08163 5.23927,10.90324 15.16239,20.29645 27.05631,25.61147 6.62322,2.95972 11.5557,4.16075 20.63358,5.02416 12.41373,1.18069 14.02413,3.53552 15.25377,22.30489 0.89373,13.64214 -0.10337,37.47618 -1.74957,41.82046 -1.14489,3.02131 -3.89831,6.00902 -6.44255,6.99075 -1.08639,0.4192 -5.53994,1.10182 -9.89677,1.51694 -22.11665,2.10729 -40.2588,15.6755 -47.04263,35.18239 -2.82476,8.12263 -3.58266,23.08441 -1.56642,30.92336 1.61123,6.26433 6.37523,15.39221 11.52931,22.09034 4.25655,5.53169 6.86718,10.83218 6.89302,13.9952 0.0207,2.54093 -7.35298,12.70892 -13.73899,18.94534 l -4.09301,3.99715 z"
       style="opacity:0.999;fill:#ffb901;fill-opacity:1;stroke-width:0.816327" />
    <path
       id="path857"
       d="m 284.59487,549.78336 c -12.16801,-1.65578 -14.23044,-3.93 -16.01395,-17.6585 -2.29693,-17.68053 -5.887,-25.07636 -17.45501,-35.95872 -10.70994,-10.07514 -20.25942,-13.7807 -35.61571,-13.82026 -13.30739,-0.0343 -22.29896,3.07681 -33.588,11.62145 -14.17754,10.73095 -16.78275,10.45738 -31.45934,-3.30343 -5.24902,-4.92148 -6.49623,-6.51797 -5.90555,-7.55939 0.78084,-1.37669 39.98871,-40.97664 81.39934,-82.21333 l 24.10804,-24.00678 9.25338,6.19106 c 9.72533,6.50684 15.3606,9.31508 24.1241,12.02185 4.57568,1.41328 7.59131,1.63738 22.03361,1.63738 16.39371,0 16.87917,-0.0492 23.98511,-2.42989 9.06691,-3.03769 13.54999,-5.30127 22.12742,-11.17248 3.72847,-2.55212 7.45324,-4.59692 8.27727,-4.544 3.22183,0.20691 12.21609,8.5025 51.04975,47.08429 43.79073,43.50669 56.45383,56.75503 56.39069,58.99683 -0.0392,1.39165 -15.02138,14.93569 -18.9086,17.09355 -4.64882,2.58064 -9.16457,0.95791 -18.65392,-6.70327 -11.52848,-9.30746 -21.06843,-12.7882 -35.04962,-12.7882 -15.6066,0 -25.15772,3.93681 -35.90092,14.79775 -11.15265,11.27487 -15.82883,21.10734 -17.12273,36.00348 -1.29927,14.95787 -3.23575,16.25381 -25.71216,17.2072 -19.46031,0.82545 -21.93563,0.78626 -31.3632,-0.49659 z"
       style="opacity:0.999;fill:#02a4ef;fill-opacity:1;stroke-width:0.816327" />
  </g>
</svg>
